<svg viewBox="0 532.8000000000001 1485 465" xmlns:xlink="http://www.w3.org/1999/xlink" version="1.1" xmlns="http://www.w3.org/2000/svg" style="max-height: 500px" width="1485" height="465"><rect fill="#ffffff" height="1000" width="1500"/><g transform="matrix(0.6666666666666666,0,0,0.6666666666666666,249.39393939393938,592.0821114411601)"><svg xmlns:xlink="http://www.w3.org/1999/xlink" xmlns="http://www.w3.org/2000/svg" width="1500" height="473" preserveAspectRatio="xMidYMid meet" data-background-color="#ffffff" viewBox="0 0 396 125"><g transform="matrix(1,0,0,1,0.2400000000000091,0.09958584520609293)" id="tight-bounds"><svg width="395.52" height="124.80082830958779" viewBox="0 0 395.52 124.80082830958779"><g><svg width="395.52" height="124.80082830958779" viewBox="0 0 634.581403527978 200.23332521782064"><g transform="matrix(1,0,0,1,0,58.99846517444295)"><svg width="395.52" height="82.23639486893474" viewBox="0 0 395.52 82.23639486893474"><g id="textblocktransform"><svg id="textblock" width="395.52" height="82.23639486893474" viewBox="0 0 395.52 82.23639486893474"><g><svg width="395.52" height="82.23639486893474" viewBox="0 0 395.52 82.23639486893474"><g transform="matrix(1,0,0,1,0,0)"><svg data-palette-color="#755bb4" height="82.23639486893474" viewBox="3.49 -35.5 219.75 45.51" width="395.52"><g id="text-0" data-fill-palette-color="primary" class="wordmark-text-0"><path data-fill-palette-color="primary" fill="#755bb4" d="M23.19-8.11L23.19-8.11Q23.19-6.32 22.52-4.76 21.85-3.2 20.68-2.03 19.51-0.85 17.94-0.18 16.38 0.49 14.6 0.49L14.6 0.49 12.11 0.49Q10.33 0.49 8.75-0.18 7.18-0.85 6.01-2.03 4.83-3.2 4.16-4.76 3.49-6.32 3.49-8.11L3.49-8.11 3.49-26.9Q3.49-28.69 4.16-30.25 4.83-31.81 6.01-32.98 7.18-34.16 8.75-34.83 10.33-35.5 12.11-35.5L12.11-35.5 14.6-35.5Q16.38-35.5 17.94-34.83 19.51-34.16 20.68-32.98 21.85-31.81 22.52-30.25 23.19-28.69 23.19-26.9L23.19-26.9 23.19-25.49 20.04-25 20.04-26.9Q20.04-28.08 19.6-29.09 19.17-30.1 18.41-30.86 17.65-31.62 16.64-32.06 15.63-32.5 14.45-32.5L14.45-32.5 12.26-32.5Q11.08-32.5 10.07-32.06 9.06-31.62 8.29-30.86 7.52-30.1 7.08-29.09 6.64-28.08 6.64-26.9L6.64-26.9 6.64-8.11Q6.64-6.93 7.08-5.92 7.52-4.91 8.29-4.14 9.06-3.37 10.07-2.93 11.08-2.49 12.26-2.49L12.26-2.49 14.45-2.49Q15.63-2.49 16.64-2.93 17.65-3.37 18.41-4.14 19.17-4.91 19.6-5.92 20.04-6.93 20.04-8.11L20.04-8.11 20.04-10.01 23.19-9.5 23.19-8.11ZM39.55-22.14L36.55-22.14Q35.64-22.14 34.85-21.8 34.06-21.46 33.47-20.87 32.88-20.29 32.54-19.49 32.2-18.7 32.2-17.8L32.2-17.8 32.2 0 29.2 0 29.2-25 30.2-25 31.83-22.46Q32.86-23.85 34.41-24.67 35.96-25.49 37.79-25.49L37.79-25.49 39.55-25.49 39.55-22.14ZM60.25-25L47.6 10.01 44.7 10.01 49.14-2.15 41.04-25 44.04-25 50.56-6.05 50.65-4.76 50.75-6.05 57.25-25 60.25-25ZM79.95-6.86L79.95-6.86Q79.95-5.35 79.37-4 78.8-2.66 77.8-1.66 76.8-0.66 75.46-0.09 74.11 0.49 72.6 0.49L72.6 0.49 71.84 0.49Q70.16 0.49 68.72-0.2 67.28-0.88 66.25-2.1L66.25-2.1 66.25 10.01 63.25 10.01 63.25-25 64.25-25 65.89-22.46Q66.91-23.85 68.46-24.67 70.01-25.49 71.84-25.49L71.84-25.49 72.6-25.49Q74.11-25.49 75.46-24.91 76.8-24.34 77.8-23.34 78.8-22.34 79.37-21 79.95-19.65 79.95-18.14L79.95-18.14 79.95-6.86ZM76.95-6.69L76.95-18.31Q76.95-19.21 76.6-20.01 76.26-20.8 75.68-21.39 75.09-21.97 74.3-22.31 73.5-22.66 72.6-22.66L72.6-22.66 70.6-22.66Q69.69-22.66 68.9-22.31 68.11-21.97 67.52-21.39 66.94-20.8 66.59-20.01 66.25-19.21 66.25-18.31L66.25-18.31 66.25-6.69Q66.25-5.79 66.59-4.99 66.94-4.2 67.52-3.61 68.11-3.03 68.9-2.69 69.69-2.34 70.6-2.34L70.6-2.34 72.6-2.34Q73.5-2.34 74.3-2.69 75.09-3.03 75.68-3.61 76.26-4.2 76.6-4.99 76.95-5.79 76.95-6.69L76.95-6.69ZM97.79 0L95.06 0Q93.69 0 92.48-0.51 91.27-1.03 90.38-1.93 89.49-2.83 88.97-4.03 88.44-5.22 88.44-6.59L88.44-6.59 88.44-22.14 83.95-22.14 83.95-25 88.44-25 88.44-31.01 91.45-31.49 91.45-25 97.79-25 97.79-22.14 91.45-22.14 91.45-6.45Q91.45-5.69 91.73-5.04 92.01-4.39 92.49-3.91 92.98-3.42 93.64-3.14 94.3-2.86 95.06-2.86L95.06-2.86 97.79-2.86 97.79 0ZM120.01-6.86L120.01-6.86Q120.01-5.35 119.43-4 118.86-2.66 117.86-1.66 116.86-0.66 115.51-0.09 114.17 0.49 112.66 0.49L112.66 0.49 110.66 0.49Q109.14 0.49 107.8-0.09 106.46-0.66 105.46-1.66 104.46-2.66 103.88-4 103.31-5.35 103.31-6.86L103.31-6.86 103.31-18.14Q103.31-19.65 103.88-21 104.46-22.34 105.46-23.34 106.46-24.34 107.8-24.91 109.14-25.49 110.66-25.49L110.66-25.49 112.66-25.49Q114.17-25.49 115.51-24.91 116.86-24.34 117.86-23.34 118.86-22.34 119.43-21 120.01-19.65 120.01-18.14L120.01-18.14 120.01-6.86ZM117-6.69L117-18.31Q117-19.21 116.66-20.01 116.32-20.8 115.73-21.39 115.15-21.97 114.36-22.31 113.56-22.66 112.66-22.66L112.66-22.66 110.66-22.66Q109.75-22.66 108.96-22.31 108.17-21.97 107.58-21.39 106.99-20.8 106.65-20.01 106.31-19.21 106.31-18.31L106.31-18.31 106.31-6.69Q106.31-5.79 106.65-4.99 106.99-4.2 107.58-3.61 108.17-3.03 108.96-2.69 109.75-2.34 110.66-2.34L110.66-2.34 112.66-2.34Q113.56-2.34 114.36-2.69 115.15-3.03 115.73-3.61 116.32-4.2 116.66-4.99 117-5.79 117-6.69L117-6.69ZM159.65-35.01L150.4 0 148.76 0 141.95-26.34 141.86-27.71 141.71-26.34 134.95 0 133.31 0 124.01-35.01 127.16-35.01 134.02-8.4 134.12-7.1 134.21-8.4 140.95-35.01 142.71-35.01 149.45-8.4 149.55-7.1 149.67-8.4 156.5-35.01 159.65-35.01ZM180.35 0L179.35 0 177.69-2.49Q176.67-1.15 175.13-0.33 173.59 0.49 171.76 0.49L171.76 0.49 171 0.49Q169.49 0.49 168.15-0.09 166.8-0.66 165.8-1.66 164.8-2.66 164.23-4 163.65-5.35 163.65-6.86L163.65-6.86 163.65-7.1Q163.65-8.62 164.23-9.96 164.8-11.3 165.8-12.3 166.8-13.31 168.15-13.88 169.49-14.45 171-14.45L171-14.45 177.35-14.45 177.35-18.31Q177.35-19.21 177.01-20.01 176.67-20.8 176.08-21.39 175.5-21.97 174.7-22.31 173.91-22.66 173-22.66L173-22.66 171.25-22.66Q170.34-22.66 169.55-22.31 168.76-21.97 168.17-21.39 167.59-20.8 167.24-20.01 166.9-19.21 166.9-18.31L166.9-18.31 166.9-17.41 163.9-17.9 163.9-18.14Q163.9-19.65 164.47-21 165.05-22.34 166.05-23.34 167.05-24.34 168.39-24.91 169.73-25.49 171.25-25.49L171.25-25.49 173-25.49Q174.52-25.49 175.86-24.91 177.2-24.34 178.21-23.34 179.21-22.34 179.78-21 180.35-19.65 180.35-18.14L180.35-18.14 180.35 0ZM177.35-6.69L177.35-12.11 171-12.11Q170.1-12.11 169.31-11.77 168.51-11.43 167.93-10.83 167.34-10.23 167-9.44 166.66-8.64 166.66-7.74L166.66-7.74 166.66-6.69Q166.66-5.79 167-4.99 167.34-4.2 167.93-3.61 168.51-3.03 169.31-2.69 170.1-2.34 171-2.34L171-2.34 173-2.34Q173.91-2.34 174.7-2.69 175.5-3.03 176.08-3.61 176.67-4.2 177.01-4.99 177.35-5.79 177.35-6.69L177.35-6.69ZM203.06-25L194.19 0 192.7 0 183.84-25 186.85-25 193.36-6.05 193.46-4.76 193.56-6.05 200.05-25 203.06-25ZM223.24-6.86L223.24-6.86Q223.24-5.35 222.67-4 222.1-2.66 221.1-1.66 220.09-0.66 218.75-0.09 217.41 0.49 215.9 0.49L215.9 0.49 213.89 0.49Q212.38 0.49 211.04-0.09 209.69-0.66 208.69-1.66 207.69-2.66 207.12-4 206.54-5.35 206.54-6.86L206.54-6.86 206.54-18.14Q206.54-19.65 207.12-21 207.69-22.34 208.69-23.34 209.69-24.34 211.04-24.91 212.38-25.49 213.89-25.49L213.89-25.49 215.9-25.49Q217.41-25.49 218.75-24.91 220.09-24.34 221.1-23.34 222.1-22.34 222.67-21 223.24-19.65 223.24-18.14L223.24-18.14 223.24-12.26 209.55-12.26 209.55-6.69Q209.55-5.79 209.89-4.99 210.23-4.2 210.82-3.61 211.4-3.03 212.2-2.69 212.99-2.34 213.89-2.34L213.89-2.34 215.9-2.34Q216.8-2.34 217.59-2.69 218.39-3.03 218.97-3.61 219.56-4.2 219.9-4.99 220.24-5.79 220.24-6.69L220.24-6.69 220.24-8.35 223.24-7.86 223.24-6.86ZM220.24-14.6L220.24-18.31Q220.24-19.21 219.9-20.01 219.56-20.8 218.97-21.39 218.39-21.97 217.59-22.31 216.8-22.66 215.9-22.66L215.9-22.66 213.89-22.66Q212.99-22.66 212.2-22.31 211.4-21.97 210.82-21.39 210.23-20.8 209.89-20.01 209.55-19.21 209.55-18.31L209.55-18.31 209.55-14.6 220.24-14.6Z"/></g></svg></g></svg></g></svg></g></svg></g><g transform="matrix(1,0,0,1,434.34807831015723,0)"><svg width="200.23332521782064" height="200.23332521782064" viewBox="0 0 200.23332521782064 200.23332521782064"><g><svg/></g><g id="icon-0"><svg width="200.23332521782064" height="200.23332521782064" viewBox="0 0 200.23332521782064 200.23332521782064"><g><path stroke="transparent" fill="#755bb4" data-fill-palette-color="accent" d="M0 100.117c0-55.293 44.824-100.117 100.117-100.117 55.293 0 100.117 44.824 100.116 100.117 0 55.293-44.824 100.117-100.116 100.116-55.293 0-100.117-44.824-100.117-100.116zM100.117 192.817c51.197 0 92.701-41.503 92.7-92.7 0-51.197-41.503-92.701-92.7-92.701-51.197 0-92.701 41.503-92.701 92.701 0 51.197 41.503 92.701 92.701 92.7z"/></g><g transform="matrix(1,0,0,1,42.179334228438606,44.88211059738761)"><svg width="115.87465676094342" height="110.46910402304542" viewBox="0 0 115.87465676094342 110.46910402304542"><g><svg id="dxe-0" data-fill-palette-color="accent" class="icon-dxe-0" width="115.87465676094342" height="110.46910402304542" xml:space="preserve" viewBox="0 2.33 100 95.33500000000001" y="0" x="0" version="1.1" xmlns:xlink="http://www.w3.org/1999/xlink" xmlns="http://www.w3.org/2000/svg"><path data-fill-palette-color="accent" d="M48.131 2.33V2.381L48.234 2.33H51.255L51.613 2.381 51.664 2.33 51.972 2.381C56.204 2.381 61.359 3.371 67.435 5.351 70.849 6.614 74.228 8.253 77.574 10.267 79.656 11.496 82.08 13.288 84.845 15.643 88.191 18.818 90.409 21.275 91.501 23.017A43.8 43.8 0 0 1 97.492 34.23C99.131 39.214 99.95 43.566 99.95 47.287L100 47.491H99.949L100 47.542V50.767L99.949 50.819 100 50.871C100 53.396 99.488 57.031 98.464 61.777 97.508 65.122 96.467 67.989 95.341 70.379 94.112 72.803 92.44 75.414 90.322 78.213 88.957 79.886 87.181 81.78 84.997 83.897 81.481 86.867 78.512 89.069 76.088 90.502 75.03 91.048 74.074 91.321 73.221 91.321 70.934 91.321 69.398 90.194 68.613 87.941 68.476 87.327 68.408 86.797 68.408 86.354 68.408 84.408 70.115 82.548 73.529 80.773 74.587 80.261 76.276 78.963 78.597 76.881 81.567 73.945 83.632 71.505 84.793 69.559A37 37 0 0 0 88.121 63.159C89.35 59.678 89.964 57.407 89.964 56.349L90.477 53.072 90.374 53.021 90.477 52.713V52.252L90.528 52.2 90.477 52.149 90.528 51.944 90.579 49.64C90.579 39.468 86.808 30.626 79.264 23.117 76.465 20.625 74.4 19.004 73.069 18.253 66.105 13.918 58.749 11.75 51 11.75H48.645L48.338 11.801V11.75L48.287 11.801H48.235C44.788 11.801 40.623 12.603 35.742 14.208 33.147 15.198 30.536 16.495 27.908 18.1 26.235 19.09 23.914 20.967 20.944 23.732L19.254 25.575C12.734 32.846 9.474 41.175 9.474 50.562L9.525 51.125H9.473L9.524 51.176V51.227C9.524 57.918 12.323 65.598 17.921 74.269 22.461 81.028 25.807 86.131 27.957 89.579A48 48 0 0 1 30.158 93.778H30.107A78.4 78.4 0 0 1 17.306 86.456C14.302 84.101 11.862 81.727 9.984 79.339 7.834 76.335 6.246 73.775 5.222 71.658 3.993 69.268 2.849 66.282 1.791 62.697 1.177 60.444 0.682 58.004 0.306 55.376L0.05 52.56H0.101L0.05 52.508 0 49.897V48.463L0.051 48.412 0 48.361V48.31L0.051 48.259 0 48.208 0.051 47.901C0.051 43.224 1.28 37.848 3.738 31.772 5.274 28.393 7.271 25.047 9.729 21.736 11.026 19.961 13.16 17.657 16.129 14.823 19.201 12.229 22.154 10.147 24.987 8.576 27.513 7.176 30.705 5.828 34.562 4.531 37.703 3.507 41.816 2.79 46.902 2.381zM48.694 15.694V15.797L48.745 15.694H51.664L51.715 15.797 51.767 15.694C54.054 15.762 56.99 16.24 60.574 17.128 63.68 18.118 66.258 19.193 68.305 20.354 70.217 21.412 72.402 23.017 74.86 25.167 77.932 28.137 79.912 30.373 80.799 31.875A31 31 0 0 1 84.691 39.607C85.442 41.484 85.971 44.198 86.278 47.748V47.799H86.227L86.278 47.85V49.745C86.278 58.995 82.455 67.257 74.808 74.527 71.292 77.633 69.039 79.238 68.049 79.34A4.9 4.9 0 0 1 66.052 79.749H65.95C63.799 79.749 62.297 78.674 61.444 76.523L61.187 74.987C61.187 72.734 62.689 70.942 65.693 69.611 66.649 69.132 67.758 68.279 69.021 67.05 71.036 64.933 72.469 62.988 73.323 61.212 74.108 59.847 74.859 57.936 75.576 55.478 75.985 53.464 76.19 52.013 76.19 51.126H76.241L76.19 51.022 76.241 50.766V48.001L76.19 47.745H76.241L76.19 47.54C76.19 45.048 75.32 42.044 73.579 38.528 72.725 36.958 71.479 35.285 69.841 33.51 68.101 31.735 66.633 30.506 65.438 29.823 60.591 26.717 55.761 25.163 50.948 25.163H50.795L50.743 25.06 50.692 25.163H50.538L50.487 25.06 50.436 25.163H49.873L49.821 25.06 49.77 25.163H48.848L48.541 25.214V25.163C46.391 25.368 44.718 25.641 43.522 25.982 37.788 27.62 33.316 30.317 30.107 34.072 28.263 36.086 26.83 38.219 25.806 40.472 24.475 43.578 23.809 46.497 23.809 49.228V50.303L23.758 50.354 23.809 50.405V50.507C23.809 55.013 25.516 59.775 28.929 64.793 37.6 78.583 44.273 89.524 48.95 97.614L48.899 97.665H48.847C42.873 97.119 38.879 96.556 36.866 95.976 28.913 83.414 24.458 76.433 23.502 75.035 19.269 68.617 16.641 63.906 15.617 60.902A33 33 0 0 1 13.927 50.405C13.927 42.554 16.504 35.351 21.659 28.797 22.444 27.773 24.065 26.151 26.523 23.933 31.166 20.246 36.234 17.806 41.73 16.611 43.711 16.172 46.031 15.864 48.694 15.694M49.514 29.314V29.417L49.565 29.314H51.153L51.256 29.417 51.307 29.314H51.358L51.41 29.417 51.461 29.314C52.963 29.314 54.994 29.672 57.555 30.389 62.743 32.232 66.686 35.646 69.383 40.63 70.885 43.736 71.636 46.775 71.636 49.744V50.051C71.636 55.718 69.195 60.855 64.314 65.463 62.266 67.102 60.405 67.921 58.733 67.921 56.65 67.921 55.097 66.812 54.073 64.593A5.5 5.5 0 0 1 53.766 63.108C53.766 61.402 55.029 59.678 57.555 57.937 59.364 56.708 60.525 55.291 61.036 53.687 61.446 52.526 61.65 51.383 61.65 50.256V50.051C61.65 46.637 60.148 43.616 57.144 40.988 55.165 39.52 52.706 38.786 49.771 38.786L49.362 38.837V38.786L49.31 38.837H49.207C46.511 38.837 43.916 39.997 41.425 42.318 39.41 44.639 38.404 47.302 38.404 50.306 38.404 52.866 40.162 56.638 43.678 61.622 52.758 75.925 59.739 87.206 64.619 95.468 60.25 96.628 56.888 97.208 54.532 97.208 50.026 90.654 44.735 82.24 38.659 71.966A202 202 0 0 0 31.696 61.161C29.409 57.611 28.264 53.907 28.264 50.05 28.264 44.691 30.227 39.946 34.153 35.816 36.269 33.87 38.198 32.487 39.939 31.669 43.045 30.372 45.111 29.723 46.134 29.723 46.715 29.587 47.841 29.45 49.514 29.314" fill="#755bb4"/></svg></g></svg></g></svg></g></svg></g></svg></g><defs/></svg><rect visibility="hidden" stroke="none" fill="none" height="124.80082830958779" width="395.52"/></g></svg></g></svg>